<svg id="Capa_1" enable-background="new 0 0 512.271 512.271" height="512" viewBox="0 0 512.271 512.271" width="512" xmlns="http://www.w3.org/2000/svg"><g><g><path d="m478.701 133.742h-445.13v-80.565c0-9.362 7.59-16.952 16.952-16.952h411.227c9.362 0 16.952 7.59 16.952 16.952v80.565z" fill="#6ed5a1"/></g><g><path d="m421.853 504.771h-371.331c-9.362 0-16.952-7.59-16.952-16.952v-354.077h445.13v313.546z" fill="#fdf6ec"/></g><g><path d="m478.698 53.175v80.565h-20.047v-80.565c0-9.362-7.588-16.95-16.95-16.95h20.047c9.362 0 16.95 7.588 16.95 16.95z" fill="#46cc8d"/></g><g><path d="m458.651 133.74h20.047v313.546h-20.047z" fill="#fcead0"/></g><g><path d="m421.853 504.771v-51.427c0-5.273 4.274-9.547 9.547-9.547h47.3z" fill="#fddeb0"/></g><g><g><path d="m377.333 363.022c-17.943 47.218-63.617 80.774-117.133 80.774-69.179 0-125.261-56.082-125.261-125.261s56.082-125.261 125.261-125.261c1.015 0 2.037.014 3.045.036-34.743 16.65-58.727 52.143-58.727 93.235 0 57.069 46.26 103.329 103.329 103.329 26.75-.001 51.135-10.167 69.486-26.852z" fill="#fece85"/></g><g><path d="m377.33 363.018c-3.568 9.382-8.219 18.223-13.832 26.362-17.18 9.512-37.237 14.965-58.638 14.965-63.709 0-115.361-48.323-115.361-107.933 0-39.884 23.124-74.715 57.505-93.399-25.761 18.794-42.49 49.215-42.49 83.536 0 57.064 46.259 103.323 103.333 103.323 26.753-.001 51.13-10.164 69.483-26.854z" fill="#fec165"/></g><g><path d="m318.808 227.284 11.24 22.774c.626 1.268 1.836 2.147 3.236 2.351l25.133 3.652c3.525.512 4.932 4.844 2.382 7.33l-18.186 17.727c-1.013.987-1.475 2.41-1.236 3.804l4.293 25.031c.602 3.51-3.083 6.188-6.235 4.53l-22.479-11.818c-1.252-.658-2.748-.658-3.999 0l-22.479 11.818c-3.153 1.657-6.837-1.02-6.235-4.53l4.293-25.031c.239-1.394-.223-2.816-1.236-3.804l-18.186-17.727c-2.551-2.486-1.143-6.818 2.382-7.33l25.133-3.652c1.4-.203 2.61-1.082 3.236-2.351l11.24-22.774c1.572-3.194 6.127-3.194 7.703 0z" fill="#fece85"/></g><g><path d="m342.609 281.116c-1.012.992-1.473 2.416-1.233 3.809l4.29 25.029c.601 3.508-3.077 6.184-6.235 4.531l-13.341-7.016c0-.22-.02-.461-.06-.702l-4.661-27.134c-.251-1.514.251-3.047 1.343-4.12l19.716-19.215c.712-.692 1.133-1.524 1.313-2.376l14.674 2.135c3.528.511 4.931 4.851 2.385 7.337z" fill="#fec165"/></g></g><g><g><g><path d="m133.439 73.76c-9.288 0-16.818-7.53-16.818-16.818v-32.624c0-9.288 7.53-16.818 16.818-16.818 9.288 0 16.818 7.53 16.818 16.818v32.624c-.001 9.288-7.53 16.818-16.818 16.818z" fill="#918291"/></g><g><path d="m150.259 24.314v32.626c0 9.292-7.528 16.819-16.82 16.819-3.057 0-5.934-.822-8.41-2.255 5.032-2.907 8.41-8.34 8.41-14.564v-32.626c0-4.641-1.885-8.841-4.922-11.888-1.032-1.032-2.205-1.934-3.488-2.666 2.476-1.433 5.353-2.255 8.41-2.255 4.641 0 8.851 1.884 11.898 4.921 3.037 3.047 4.922 7.247 4.922 11.888z" fill="#7a6d79"/></g></g><g><g><path d="m378.83 73.76c-9.288 0-16.818-7.53-16.818-16.818v-32.624c0-9.288 7.53-16.818 16.818-16.818 9.288 0 16.818 7.53 16.818 16.818v32.624c0 9.288-7.53 16.818-16.818 16.818z" fill="#918291"/></g><g><path d="m395.651 24.314v32.626c0 9.292-7.528 16.819-16.82 16.819-3.057 0-5.934-.822-8.41-2.255 5.032-2.907 8.41-8.34 8.41-14.564v-32.626c0-4.641-1.885-8.841-4.922-11.888-1.032-1.032-2.205-1.934-3.488-2.666 2.476-1.433 5.353-2.255 8.41-2.255 4.641 0 8.851 1.884 11.898 4.921 3.037 3.047 4.922 7.247 4.922 11.888z" fill="#7a6d79"/></g><g><path d="m263.405 185.812c-1.061-.022-2.137-.037-3.205-.037-73.205 0-132.761 59.557-132.761 132.761 0 73.205 59.557 132.762 132.761 132.762 27.463 0 53.818-8.313 76.216-24.043 21.89-15.372 38.463-36.662 47.928-61.567 1.233-3.243.08-6.909-2.788-8.862-2.867-1.954-6.7-1.686-9.268.649-17.661 16.057-40.546 24.899-64.441 24.899-52.84 0-95.829-42.988-95.829-95.828 0-18.422 5.237-36.31 15.145-51.729 9.656-15.027 23.253-27.041 39.324-34.742 3.131-1.501 4.823-4.954 4.09-8.348-.734-3.395-3.701-5.841-7.172-5.915zm-48.862 40.895c-11.465 17.844-17.525 38.535-17.525 59.838 0 61.11 49.717 110.828 110.829 110.828 17.137 0 33.826-3.934 48.904-11.352-7.82 11.179-17.577 20.967-28.955 28.957-19.86 13.946-43.234 21.318-67.596 21.318-64.934 0-117.761-52.828-117.761-117.762 0-56.024 39.331-103.037 91.827-114.884-7.554 6.711-14.198 14.458-19.723 23.057z"/><path d="m369.018 256.667c-1.398-4.302-5.048-7.378-9.523-8.027l-23.466-3.41-10.495-21.265v-.001c-2.002-4.056-6.056-6.575-10.58-6.575-4.523.001-8.576 2.521-10.578 6.576l-10.495 21.265-23.466 3.41c-4.477.649-8.126 3.726-9.524 8.028-1.398 4.303-.254 8.937 2.985 12.095l16.98 16.551-4.008 23.372c-.765 4.458 1.034 8.88 4.693 11.538 3.659 2.659 8.419 3.002 12.424.898l20.989-11.035 20.989 11.035c1.742.915 3.626 1.367 5.5 1.367 2.436 0 4.856-.764 6.924-2.266 3.659-2.659 5.458-7.08 4.693-11.538l-4.009-23.372 16.981-16.552c3.24-3.157 4.384-7.791 2.986-12.094zm-31.642 19.081c-2.78 2.71-4.048 6.613-3.393 10.441l3.196 18.636-16.735-8.799c-1.719-.903-3.604-1.355-5.49-1.355s-3.771.452-5.49 1.355l-16.735 8.799 3.196-18.634c.657-3.828-.611-7.732-3.393-10.444l-13.539-13.196 18.709-2.72c3.844-.558 7.166-2.97 8.884-6.453l8.368-16.955 8.368 16.954c1.719 3.483 5.04 5.896 8.882 6.454l18.711 2.72z"/><path d="m461.749 28.726h-58.601v-4.407c0-13.41-10.909-24.319-24.318-24.319s-24.317 10.909-24.317 24.318v4.407h-37.964c-4.142 0-7.5 3.357-7.5 7.5s3.358 7.5 7.5 7.5h37.964v13.216c0 13.409 10.909 24.318 24.317 24.318s24.318-10.909 24.318-24.318v-13.215h58.601c5.211 0 9.452 4.24 9.452 9.451v73.065h-430.13v-73.065c0-5.211 4.24-9.451 9.452-9.451h58.599v13.216c0 13.409 10.909 24.318 24.317 24.318s24.318-10.909 24.318-24.318v-13.216h124.256c4.142 0 7.5-3.357 7.5-7.5s-3.358-7.5-7.5-7.5h-124.257v-4.407c0-13.41-10.909-24.319-24.318-24.319s-24.317 10.909-24.317 24.318v4.407h-58.599c-13.483 0-24.452 10.969-24.452 24.451v242.893c0 4.143 3.358 7.5 7.5 7.5s7.5-3.357 7.5-7.5v-154.827h430.13v295.055h-39.8c-9.4 0-17.047 7.647-17.047 17.047v43.928h-363.831c-5.211 0-9.452-4.24-9.452-9.452v-157.268c0-4.143-3.358-7.5-7.5-7.5s-7.5 3.357-7.5 7.5v157.268c0 13.483 10.969 24.452 24.452 24.452h371.331c2.003 0 3.924-.802 5.333-2.227l56.848-57.484c1.389-1.403 2.167-3.299 2.167-5.273v-394.111c0-13.483-10.969-24.451-24.452-24.451zm-73.601 28.215c0 5.138-4.18 9.318-9.318 9.318s-9.317-4.181-9.317-9.318v-32.623c0-5.138 4.18-9.318 9.317-9.318s9.318 4.181 9.318 9.318zm-264.027-32.623c0-5.138 4.18-9.318 9.317-9.318s9.318 4.181 9.318 9.318v32.623c0 5.138-4.18 9.318-9.318 9.318s-9.317-4.181-9.317-9.318zm305.232 461.411v-32.385c0-1.129.918-2.047 2.047-2.047h30.054z"/></g></g></g></g></svg>